<svg fill="currentColor" version="1.1" viewBox="0 0 78 78" xmlns="http://www.w3.org/2000/svg">
 <g transform="translate(-49.694 -203.62)">
  <path d="m89.753 281.29c-6.1705 0-10.28-2.3678-14.938-5.0901-4.5977-2.7223-9.4715-5.5269-12.012-10.427-2.5408-4.9606-5.032-10.531-5.032-17.185 0-5.0211-0.36361-8.9091 0.38065-14.737 0.85905-6.7263-1.5751-3.6271 3.4216-13.646 4.2831-8.5879 8.4969-9.8652 11.883-12.077 7.8742-5.1431 18.748-4.2693 23.862-3.8834 16.036 1.2101-4.1899 11.59 1.0836 15.335 10.161 7.2164 12.832 5.911 15.795 10.568 7.6258 11.991 5.1128 13.614 5.1128 20.269 0 5.0211 0.48032 7.4003-0.97157 11.453s-3.539 7.5317-6.2613 10.435c-2.6618 2.9038-5.8983 5.1421-9.7095 6.715-3.7507 1.5124-7.9551 2.2686-12.613 2.2686zm0-9.9817c9.8411-2.0621 7.2594-0.90743 9.9817-2.7223 2.7828-1.8149 4.9001-4.4464 6.352-7.8946 1.5124-3.4482 1.2627-7.669 2.2686-12.341 2.3408-10.872-1.6334-12.886-4.9001-16.878-3.2063-3.9927-7.7737-5.989-13.702-5.989-3.8717 0-7.199 0.90743-9.9817 2.7223-2.7828 1.7544-2.3821 5.8888-3.8945 9.3371-1.4519 3.3878-4.7261 5.9683-4.7261 10.808 0 7.199-1.0892 12.911 2.1776 16.964 3.2668 4.0532 10.681 7.1976 16.425 5.9941zm-0.07311-28.122c-1.0396 0-1.9325 0.24316-2.6797 0.73047-0.7472 0.47106-0.63884 1.5819-1.0449 2.5078-0.38984 0.90963-1.2695 1.6029-1.2695 2.9024 0 1.9329-0.29316 3.4664 0.58398 4.5547s2.868 1.9325 4.4102 1.6094c2.6424-0.55369 3.9969-1.9257 4.3867-2.8516 0.40608-0.92587 0.33929-2.058 0.60938-3.3125 0.6285-2.9193-0.43926-3.4612-1.3164-4.5332-0.86089-1.0721-2.0878-1.6074-3.6797-1.6074z" fill="#7480ff"/>
 </g>
</svg>
