<svg fill="currentColor" version="1.1" viewBox="0 0 412.07 93.35" xmlns="http://www.w3.org/2000/svg">
 <g transform="translate(-49.693 -203.62)">
  <path d="m81.765 280.97c-6.1705 0-10.28-2.3678-14.938-5.0901-4.5977-2.7223-9.4715-5.5269-12.012-10.427-2.5408-4.9606-5.032-10.531-5.032-17.185 0-5.0211-0.36361-8.9091 0.38065-14.737 0.85905-6.7263-1.5751-3.6271 3.4216-13.646 4.2831-8.5879 8.4969-9.8652 11.883-12.077 7.8742-5.1431 18.748-4.2693 23.862-3.8834 16.036 1.2101-4.1899 11.59 1.0836 15.335 10.161 7.2164 12.832 5.911 15.795 10.568 7.6258 11.991 5.1128 13.614 5.1128 20.269 0 5.0211 0.48032 7.4003-0.97157 11.453s-3.539 7.5317-6.2613 10.435c-2.6618 2.9038-5.8983 5.1421-9.7095 6.715-3.7507 1.5124-7.9551 2.2686-12.613 2.2686zm0-9.9817c9.8411-2.0621 7.2594-0.90743 9.9817-2.7223 2.7828-1.8149 4.9001-4.4464 6.352-7.8946 1.5124-3.4482 1.2627-7.669 2.2686-12.341 2.3408-10.872-1.6334-12.886-4.9001-16.878-3.2063-3.9927-7.7737-5.989-13.702-5.989-3.8717 0-7.199 0.90743-9.9817 2.7223-2.7828 1.7544-2.3821 5.8888-3.8945 9.3371-1.4519 3.3878-4.7261 5.9683-4.7261 10.808 0 7.199-1.0892 12.911 2.1776 16.964 3.2668 4.0532 10.681 7.1976 16.425 5.9941zm-0.07311-28.122c-1.0396 0-1.9325 0.24316-2.6797 0.73047-0.7472 0.47106-0.63884 1.5819-1.0449 2.5078-0.38984 0.90963-1.2695 1.6029-1.2695 2.9024 0 1.9329-0.29316 3.4664 0.58398 4.5547 0.87714 1.0883 2.868 1.9325 4.4102 1.6094 2.6424-0.55369 3.9969-1.9257 4.3867-2.8516 0.40608-0.92587 0.33929-2.058 0.60938-3.3125 0.6285-2.9193-0.43926-3.4612-1.3164-4.5332-0.86089-1.0721-2.0878-1.6074-3.6797-1.6074z"/>
  <path d="m128.1 280.64q-2.7223 0-4.1742-1.4519-1.4519-1.5426-1.4519-4.3557v-34.301q0-2.813 1.4519-4.2649t4.0834-1.4519 4.0834 1.4519 1.4519 4.2649v6.1705l-0.99817-2.2686q1.9964-4.8094 6.1705-7.2594 4.2649-2.5408 9.6188-2.5408 5.3538 0 8.8021 1.9964t5.1724 6.0798q1.7241 3.9927 1.7241 10.163v21.96q0 2.813-1.4519 4.3557-1.4519 1.4519-4.1742 1.4519-2.7223 0-4.2649-1.4519-1.4519-1.5426-1.4519-4.3557v-21.415q0-5.1724-1.9964-7.5317-1.9056-2.3593-5.989-2.3593-4.9909 0-7.9854 3.176-2.9038 3.0853-2.9038 8.2576v19.873q0 5.8076-5.7168 5.8076zm58.257 16.334q-1.9963 0-3.2668-1.0889-1.2704-0.99817-1.5426-2.7223-0.18149-1.7241 0.6352-3.6297l6.1705-13.702v4.7186l-16.515-38.203q-0.81669-1.9964-0.54446-3.7205 0.27223-1.7241 1.6334-2.7223 1.4519-1.0889 3.902-1.0889 2.0871 0 3.3575 0.99818 1.2704 0.90743 2.2686 3.539l12.25 30.58h-2.7223l12.523-30.671q0.99817-2.5408 2.3593-3.4482 1.3611-0.99818 3.6297-0.99818 1.9964 0 3.176 1.0889 1.1797 0.99818 1.4519 2.7223 0.27223 1.6334-0.6352 3.6297l-22.051 50.362q-1.1797 2.5408-2.5408 3.4482-1.3612 0.90743-3.539 0.90743zm38.657-16.606q-1.9964 0-3.3575-1.0889-1.2704-1.1797-1.3611-2.9945 0-1.8149 1.5426-3.8112l14.7-18.149v5.3538l-13.793-16.969q-1.6334-1.9963-1.5426-3.8112 0.0907-1.8149 1.3611-2.9038 1.3612-1.1797 3.3575-1.1797 2.0871 0 3.4482 0.72595 1.4519 0.72594 2.6316 2.2686l10.889 13.974h-3.9927l10.98-13.974q1.2704-1.5426 2.6316-2.2686 1.3611-0.72595 3.3575-0.72595 2.0871 0 3.3575 1.1797 1.2704 1.1797 1.2704 2.9945 0.0907 1.8149-1.5426 3.8112l-13.702 16.787v-5.0816l14.7 17.967q1.6334 1.9056 1.5426 3.7205-0.0907 1.8149-1.4519 2.9945-1.2704 1.1797-3.3575 1.1797-1.9964 0-3.3575-0.72594-1.3612-0.72595-2.6316-2.2686l-11.797-14.882h3.8112l-11.706 14.882q-1.1797 1.4519-2.5408 2.2686-1.3611 0.72594-3.4482 0.72594zm53.448-0.45371q-2.813 0-4.3557-1.5426-1.5426-1.6334-1.5426-4.4464v-52.359q0-2.9038 1.4519-4.3557 1.5426-1.5426 4.3557-1.5426 2.813 0 4.2649 1.5426 1.5426 1.4519 1.5426 4.3557v48.457h26.316q2.4501 0 3.7205 1.2704 1.3612 1.2704 1.3612 3.6297t-1.3612 3.7205q-1.2704 1.2704-3.7205 1.2704zm58.62 0.90743q-4.8094 0-8.6206-1.8149-3.7205-1.9056-5.8983-5.0816-2.0871-3.176-2.0871-7.1687 0-4.9001 2.5408-7.7132 2.5408-2.9038 8.2576-4.1742 5.7168-1.2704 15.336-1.2704h4.5372v6.5335h-4.4464q-5.6261 0-8.9836 0.54446-3.3575 0.54446-4.8094 1.9056-1.3612 1.2704-1.3612 3.6297 0 2.9945 2.0871 4.9001 2.0871 1.9056 5.8076 1.9056 2.9945 0 5.2631-1.3612 2.3593-1.4519 3.7205-3.902 1.3612-2.4501 1.3612-5.6261v-10.435q0-4.5372-1.9964-6.5335t-6.715-1.9964q-2.6316 0-5.7168 0.6352-2.9945 0.6352-6.352 2.1778-1.7241 0.81668-3.0853 0.45371-1.2704-0.36297-1.9964-1.4519-0.72594-1.1797-0.72594-2.5408 0-1.3612 0.72594-2.6316 0.72595-1.3612 2.4501-1.9964 4.1742-1.7241 7.9854-2.4501 3.902-0.72594 7.078-0.72594 6.5335 0 10.708 1.9964 4.2649 1.9964 6.352 6.0798 2.0871 3.9927 2.0871 10.345v21.778q0 2.813-1.3612 4.3557-1.3612 1.4519-3.902 1.4519-2.5408 0-3.9927-1.4519-1.3612-1.5426-1.3612-4.3557v-4.3557h0.72595q-0.6352 3.176-2.5408 5.5353-1.8149 2.2686-4.6279 3.539-2.813 1.2704-6.4428 1.2704zm60.616 0q-5.6261 0-9.891-2.813-4.1742-2.813-5.5353-7.5317l0.99817-2.2686v6.6242q0 2.813-1.4519 4.3557-1.4519 1.4519-4.0834 1.4519-2.7223 0-4.1742-1.4519-1.4519-1.5426-1.4519-4.3557v-53.901q0-2.813 1.4519-4.2649t4.1742-1.4519 4.1742 1.4519q1.5426 1.4519 1.5426 4.2649v23.593h-1.0889q1.4519-4.4464 5.6261-7.1687t9.7095-2.7223q5.8983 0 10.254 2.813 4.3557 2.813 6.8057 7.9854 2.4501 5.0816 2.4501 12.25 0 7.078-2.4501 12.341-2.4501 5.1724-6.8965 7.9854-4.3557 2.813-10.163 2.813zm-3.176-8.6206q3.3575 0 5.8983-1.6334 2.5408-1.6334 3.902-4.8094 1.4519-3.2668 1.4519-8.0761 0-7.2594-3.0853-10.798-3.0853-3.6297-8.1669-3.6297-3.3575 0-5.8983 1.6334-2.5408 1.5426-3.9927 4.8094-1.3612 3.176-1.3612 7.9854 0 7.1687 3.0853 10.889 3.0853 3.6297 8.1669 3.6297zm48.275 8.6206q-3.902 0-8.2576-0.81669t-7.8039-2.813q-1.4519-0.90743-2.0871-2.0871-0.54446-1.2704-0.45372-2.4501 0.18149-1.2704 0.90743-2.1778 0.81669-0.90743 1.9964-1.1797 1.2704-0.27223 2.7223 0.45372 3.6297 1.7241 6.8057 2.4501 3.176 0.63521 6.2613 0.63521 4.3557 0 6.4428-1.4519 2.1778-1.5426 2.1778-3.9927 0-2.0871-1.4519-3.176-1.3611-1.1797-4.1742-1.7241l-9.0743-1.7241q-5.6261-1.0889-8.6206-4.0834-2.9038-3.0853-2.9038-7.8946 0-4.3557 2.3593-7.5317 2.4501-3.176 6.715-4.9001 4.2649-1.7241 9.8002-1.7241 3.9927 0 7.4409 0.90743 3.539 0.81669 6.8057 2.6316 1.3612 0.72594 1.8149 1.9056 0.54446 1.1797 0.27223 2.4501-0.27223 1.1797-1.0889 2.1778-0.81668 0.90743-2.0871 1.1797-1.1797 0.18149-2.7223-0.54446-2.813-1.4519-5.4446-2.0871-2.5408-0.6352-4.9001-0.6352-4.4464 0-6.6242 1.5426-2.0871 1.5426-2.0871 4.0834 0 1.9056 1.2704 3.176 1.2704 1.2704 3.902 1.7241l9.0743 1.7241q5.8983 1.0889 8.8928 3.9927 3.0853 2.9038 3.0853 7.8039 0 6.6242-5.1724 10.435-5.1724 3.7205-13.793 3.7205z"/>
 </g>
</svg>
