<svg fill="currentColor" version="1.1" viewBox="0 0 367.51 93.357" xmlns="http://www.w3.org/2000/svg">
 <g transform="translate(-49.694 -203.62)">
  <path d="m81.765 280.97c-6.1705 0-10.28-2.3678-14.938-5.0901-4.5977-2.7223-9.4715-5.5269-12.012-10.427-2.5408-4.9606-5.032-10.531-5.032-17.185 0-5.0211-0.36361-8.9091 0.38065-14.737 0.85905-6.7263-1.5751-3.6271 3.4216-13.646 4.2831-8.5879 8.4969-9.8652 11.883-12.077 7.8742-5.1431 18.748-4.2693 23.862-3.8834 16.036 1.2101-4.1899 11.59 1.0836 15.335 10.161 7.2164 12.832 5.911 15.795 10.568 7.6258 11.991 5.1128 13.614 5.1128 20.269 0 5.0211 0.48032 7.4003-0.97157 11.453s-3.539 7.5317-6.2613 10.435c-2.6618 2.9038-5.8983 5.1421-9.7095 6.715-3.7507 1.5124-7.9551 2.2686-12.613 2.2686zm0-9.9817c9.8411-2.0621 7.2594-0.90743 9.9817-2.7223 2.7828-1.8149 4.9001-4.4464 6.352-7.8946 1.5124-3.4482 1.2627-7.669 2.2686-12.341 2.3408-10.872-1.6334-12.886-4.9001-16.878-3.2063-3.9927-7.7737-5.989-13.702-5.989-3.8717 0-7.199 0.90743-9.9817 2.7223-2.7828 1.7544-2.3821 5.8888-3.8945 9.3371-1.4519 3.3878-4.7261 5.9683-4.7261 10.808 0 7.199-1.0892 12.911 2.1776 16.964 3.2668 4.0532 10.681 7.1976 16.425 5.9941zm-0.07311-28.122c-1.0396 0-1.9325 0.24316-2.6797 0.73047-0.7472 0.47106-0.63884 1.5819-1.0449 2.5078-0.38984 0.90963-1.2695 1.6029-1.2695 2.9024 0 1.9329-0.29316 3.4664 0.58398 4.5547s2.868 1.9325 4.4102 1.6094c2.6424-0.55369 3.9969-1.9257 4.3867-2.8516 0.40608-0.92587 0.33929-2.058 0.60938-3.3125 0.6285-2.9193-0.43926-3.4612-1.3164-4.5332-0.86089-1.0721-2.0878-1.6074-3.6797-1.6074z"/>
  <path d="m128.1 280.64c-1.8149 0-3.2063-0.48397-4.1742-1.4519-0.96793-1.0284-1.4519-2.4803-1.4519-4.3557v-34.301c0-1.8753 0.48397-3.297 1.4519-4.2649s2.3291-1.4519 4.0834-1.4519 3.1155 0.48397 4.0834 1.4519 1.4519 2.3896 1.4519 4.2649v6.1705l-0.99817-2.2686c1.3309-3.2063 3.3878-5.6261 6.1705-7.2594 2.8433-1.6939 6.0495-2.5408 9.6188-2.5408 3.5692 0 6.5032 0.66547 8.8021 1.9964s4.023 3.3575 5.1724 6.0798c1.1494 2.6618 1.7241 6.0495 1.7241 10.163v21.96c0 1.8753-0.48397 3.3272-1.4519 4.3557-0.96793 0.96793-2.3593 1.4519-4.1742 1.4519s-3.2365-0.48397-4.2649-1.4519c-0.96793-1.0284-1.4519-2.4803-1.4519-4.3557v-21.415c0-3.4483-0.66547-5.9588-1.9964-7.5317-1.2704-1.5729-3.2667-2.3593-5.989-2.3593-3.3273 0-5.9891 1.0587-7.9854 3.176-1.9359 2.0569-2.9038 4.8094-2.9038 8.2576v19.873c0 3.8717-1.9056 5.8076-5.7168 5.8076zm58.257 16.334c-1.3309 0-2.4198-0.36297-3.2668-1.0889-0.84693-0.66545-1.3611-1.5729-1.5426-2.7223-0.12099-1.1494 0.0907-2.3593 0.6352-3.6297l6.1705-13.702v4.7186l-16.515-38.203c-0.54446-1.3309-0.72595-2.5711-0.54446-3.7205s0.72595-2.0568 1.6334-2.7223c0.96793-0.72593 2.2686-1.0889 3.902-1.0889 1.3914 0 2.5106 0.33273 3.3575 0.99818 0.84693 0.60495 1.6031 1.7846 2.2686 3.539l12.25 30.58h-2.7223l12.523-30.671c0.66545-1.6939 1.4519-2.8433 2.3593-3.4482 0.9074-0.66545 2.1173-0.99818 3.6297-0.99818 1.3309 0 2.3896 0.36297 3.176 1.0889 0.78647 0.66545 1.2704 1.5729 1.4519 2.7223 0.18149 1.0889-0.0302 2.2988-0.6352 3.6297l-22.051 50.362c-0.78647 1.6939-1.6334 2.8433-2.5408 3.4482-0.90747 0.60495-2.0871 0.90743-3.539 0.90743zm38.657-16.606c-1.3309 0-2.4501-0.36297-3.3575-1.0889-0.84693-0.78647-1.3006-1.7846-1.3611-2.9945 0-1.2099 0.5142-2.4803 1.5426-3.8112l14.7-18.149v5.3538l-13.793-16.969c-1.0889-1.3309-1.6031-2.6013-1.5426-3.8112s0.51417-2.1779 1.3611-2.9038c0.90747-0.78647 2.0266-1.1797 3.3575-1.1797 1.3914 0 2.5408 0.24198 3.4482 0.72595 0.96793 0.48396 1.8451 1.2402 2.6316 2.2686l10.889 13.974h-3.9927l10.98-13.974c0.84693-1.0284 1.7241-1.7846 2.6316-2.2686 0.9074-0.48397 2.0266-0.72595 3.3575-0.72595 1.3914 0 2.5106 0.39323 3.3575 1.1797s1.2704 1.7846 1.2704 2.9945c0.0605 1.2099-0.45373 2.4803-1.5426 3.8112l-13.702 16.787v-5.0816l14.7 17.967c1.0889 1.2704 1.6031 2.5106 1.5426 3.7205s-0.54443 2.2081-1.4519 2.9945c-0.84693 0.78647-1.9661 1.1797-3.3575 1.1797-1.3309 0-2.4501-0.24198-3.3575-0.72594-0.90747-0.48397-1.7847-1.2402-2.6316-2.2686l-11.797-14.882h3.8112l-11.706 14.882c-0.78647 0.96793-1.6334 1.7241-2.5408 2.2686-0.9074 0.48396-2.0568 0.72594-3.4482 0.72594zm53.448-0.45371c-1.8753 0-3.3272-0.5142-4.3557-1.5426-1.0284-1.0889-1.5426-2.5711-1.5426-4.4464v-52.359c0-1.9359 0.48397-3.3878 1.4519-4.3557 1.0284-1.0284 2.4803-1.5426 4.3557-1.5426 1.8753 0 3.297 0.5142 4.2649 1.5426 1.0284 0.96793 1.5426 2.4198 1.5426 4.3557v48.457h26.316c1.6334 0 2.8736 0.42347 3.7205 1.2704 0.90747 0.84693 1.3612 2.0568 1.3612 3.6297s-0.45373 2.813-1.3612 3.7205c-0.84693 0.84693-2.0871 1.2704-3.7205 1.2704zm58.62 0.90743c-3.2063 0-6.0798-0.60497-8.6206-1.8149-2.4803-1.2704-4.4464-2.9643-5.8983-5.0816-1.3914-2.1173-2.0871-4.5069-2.0871-7.1687 0-3.2667 0.84693-5.8378 2.5408-7.7132 1.6939-1.9359 4.4464-3.3273 8.2576-4.1742s8.9232-1.2704 15.336-1.2704h4.5372v6.5335h-4.4464c-3.7507 0-6.7453 0.18149-8.9836 0.54446s-3.8415 0.99817-4.8094 1.9056c-0.90747 0.84693-1.3612 2.0568-1.3612 3.6297 0 1.9963 0.6957 3.6297 2.0871 4.9001s3.3273 1.9056 5.8076 1.9056c1.9963 0 3.7507-0.45373 5.2631-1.3612 1.5729-0.96793 2.813-2.2686 3.7205-3.902s1.3612-3.5088 1.3612-5.6261v-10.435c0-3.0248-0.66547-5.2026-1.9964-6.5335s-3.5693-1.9963-6.715-1.9964c-1.7544 0-3.66 0.21173-5.7168 0.6352-1.9963 0.42347-4.1137 1.1494-6.352 2.1778-1.1494 0.54445-2.1778 0.69569-3.0853 0.45371-0.84693-0.24198-1.5124-0.72595-1.9964-1.4519-0.48396-0.78647-0.72594-1.6334-0.72594-2.5408 0-0.90747 0.24198-1.7847 0.72594-2.6316 0.48397-0.90747 1.3007-1.5729 2.4501-1.9964 2.7828-1.1494 5.4446-1.9661 7.9854-2.4501 2.6013-0.48396 4.9607-0.72594 7.078-0.72594 4.3557 0 7.925 0.66547 10.708 1.9964 2.8433 1.3309 4.9606 3.3575 6.352 6.0798 1.3914 2.6618 2.0871 6.1101 2.0871 10.345v21.778c0 1.8753-0.45373 3.3272-1.3612 4.3557-0.90747 0.96793-2.2081 1.4519-3.902 1.4519s-3.0248-0.48397-3.9927-1.4519c-0.90747-1.0284-1.3612-2.4803-1.3612-4.3557v-4.3557h0.72595c-0.42347 2.1173-1.2704 3.9624-2.5408 5.5353-1.2099 1.5124-2.7526 2.6921-4.6279 3.539s-4.0229 1.2704-6.4428 1.2704zm60.616 0c-3.7507 0-7.0477-0.93767-9.891-2.813-2.7828-1.8753-4.6279-4.3859-5.5353-7.5317l0.99817-2.2686v6.6242c0 1.8753-0.48397 3.3272-1.4519 4.3557-0.96793 0.96793-2.3291 1.4519-4.0834 1.4519-1.8149 0-3.2063-0.48397-4.1742-1.4519-0.96793-1.0284-1.4519-2.4803-1.4519-4.3557v-53.901c0-1.8753 0.48397-3.297 1.4519-4.2649s2.3593-1.4519 4.1742-1.4519 3.2063 0.48397 4.1742 1.4519c1.0284 0.96793 1.5426 2.3896 1.5426 4.2649v23.593h-1.0889c0.96793-2.9643 2.8433-5.3538 5.6261-7.1687s6.0193-2.7223 9.7095-2.7223c3.9322 0 7.3502 0.93767 10.254 2.813s5.1724 4.5371 6.8057 7.9854c1.6334 3.3877 2.4501 7.4711 2.4501 12.25 0 4.7187-0.8167 8.8323-2.4501 12.341-1.6334 3.4483-3.9322 6.1101-6.8965 7.9854-2.9038 1.8753-6.2915 2.813-10.163 2.813zm-3.176-8.6206c2.2383 0 4.2044-0.54447 5.8983-1.6334s2.9945-2.6921 3.902-4.8094c0.96793-2.1779 1.4519-4.8699 1.4519-8.0761 0-4.8396-1.0284-8.4389-3.0853-10.798-2.0569-2.4198-4.7792-3.6297-8.1669-3.6297-2.2383 0-4.2044 0.54447-5.8983 1.6334-1.6939 1.0284-3.0248 2.6315-3.9927 4.8094-0.90747 2.1173-1.3612 4.7791-1.3612 7.9854 0 4.7791 1.0284 8.4088 3.0853 10.889 2.0569 2.4198 4.7792 3.6297 8.1669 3.6297z"/>
 </g>
</svg>
