<?xml version="1.0" standalone="no"?>
<!DOCTYPE svg PUBLIC "-//W3C//DTD SVG 20010904//EN"
 "http://www.w3.org/TR/2001/REC-SVG-20010904/DTD/svg10.dtd">
<svg version="1.0" xmlns="http://www.w3.org/2000/svg"
 width="700.000000pt" height="700.000000pt" viewBox="0 0 700.000000 700.000000"
 preserveAspectRatio="xMidYMid meet">
<metadata>
Created by potrace 1.14, written by Peter Selinger 2001-2017
</metadata>
<g transform="translate(0.000000,700.000000) scale(0.100000,-0.100000)"
fill="#000000" stroke="none">
<path d="M3420 6967 c-3 -3 -52 -8 -110 -12 -98 -6 -139 -10 -200 -21 -14 -2
-45 -7 -70 -10 -138 -18 -405 -89 -545 -144 -131 -52 -342 -162 -395 -205 -8
-7 -35 -24 -60 -37 -55 -31 -251 -149 -265 -160 -5 -5 -41 -32 -80 -60 -204
-151 -389 -372 -543 -646 -82 -144 -257 -509 -312 -646 -61 -154 -64 -175 -65
-401 -1 -181 -11 -358 -20 -375 -2 -3 -6 -43 -10 -90 -4 -47 -9 -93 -10 -102
-8 -41 -18 -339 -17 -523 1 -257 11 -741 16 -780 2 -16 7 -57 10 -90 4 -33 9
-72 11 -85 3 -14 8 -41 11 -60 11 -69 74 -307 107 -405 88 -256 265 -642 370
-806 177 -276 466 -509 1037 -837 19 -11 76 -43 125 -72 286 -168 601 -297
810 -334 17 -3 41 -8 55 -10 113 -22 452 -29 631 -14 160 14 342 45 494 84
650 167 1186 569 1531 1149 66 111 174 326 174 347 0 8 4 18 10 24 15 15 107
302 115 359 4 28 9 59 11 70 12 63 16 184 18 570 2 237 5 439 8 451 6 20 21
226 21 294 3 270 -107 579 -355 999 -44 75 -86 145 -92 156 -37 66 -115 173
-162 224 -92 99 -166 145 -534 331 -160 81 -340 183 -470 268 -142 91 -225
147 -230 153 -3 3 -26 20 -52 37 -144 98 -128 227 59 480 31 42 59 79 63 82
16 13 198 253 239 315 53 81 91 180 91 233 -1 60 -38 123 -95 160 -49 32 -173
77 -238 87 -18 2 -61 9 -97 14 -36 5 -108 13 -160 17 -52 3 -111 8 -130 11
-54 6 -695 15 -700 10z m445 -1946 c241 -31 462 -112 650 -236 112 -75 184
-143 347 -328 79 -89 155 -175 170 -192 64 -72 81 -94 123 -156 87 -129 142
-274 161 -426 10 -75 10 -288 0 -378 -6 -61 -27 -198 -40 -260 -20 -100 -45
-239 -50 -280 -4 -27 -8 -61 -11 -75 -4 -24 -7 -50 -20 -175 -4 -33 -9 -71
-11 -85 -2 -14 -8 -61 -14 -105 -24 -189 -62 -343 -111 -452 -11 -24 -24 -53
-29 -65 -6 -13 -14 -30 -18 -38 -5 -8 -15 -26 -22 -39 -72 -138 -159 -258
-262 -363 -98 -100 -138 -132 -280 -227 l-107 -72 -133 -25 c-73 -14 -248 -47
-388 -74 -140 -27 -278 -53 -306 -58 -57 -10 -288 -8 -344 2 -19 4 -61 11 -94
17 -84 15 -216 54 -331 99 -101 40 -317 154 -323 171 -2 5 -8 9 -14 9 -17 0
-139 99 -214 174 -159 161 -238 337 -272 611 -8 66 -7 527 1 870 9 366 38 456
255 795 173 269 200 333 272 635 68 287 106 374 198 456 54 49 202 133 302
172 75 29 231 74 287 83 21 3 45 7 53 9 8 2 49 7 90 11 41 3 76 8 78 9 8 7
329 -4 407 -14z"/>
<path d="M3475 3436 c-27 -7 -73 -25 -102 -40 -56 -31 -64 -44 -98 -171 -9
-33 -38 -97 -65 -143 -27 -45 -54 -100 -60 -122 -16 -59 -16 -337 -1 -385 15
-44 52 -97 91 -132 38 -33 139 -81 200 -94 145 -31 357 40 476 161 57 57 79
106 93 205 18 120 30 197 36 225 10 45 8 144 -4 186 -6 22 -25 60 -41 83 -53
72 -163 176 -210 198 -92 42 -215 54 -315 29z"/>
</g>
</svg>
